Coordinates
version=1
nRows=15
nColumns=34
inDegrees=no

Units are S.I. units (second, meters, Newtons, ...)
If the header above contains a line with 'inDegrees', this indicates whether rotational values are in degrees (yes) or radians (no).

endheader
time	pelvis_tilt	pelvis_list	pelvis_rotation	pelvis_tx	pelvis_ty	pelvis_tz	hip_flexion_r	hip_adduction_r	hip_rotation_r	knee_angle_r	ankle_angle_r	subtalar_angle_r	mtp_angle_r	hip_flexion_l	hip_adduction_l	hip_rotation_l	knee_angle_l	ankle_angle_l	subtalar_angle_l	mtp_angle_l	lumbar_extension	lumbar_bending	lumbar_rotation	arm_flex_r	arm_add_r	arm_rot_r	elbow_flex_r	pro_sup_r	arm_flex_l	arm_add_l	arm_rot_l	elbow_flex_l	pro_sup_l
1.05	-0.309768	0.0106209	-0.0347966	-0.405613	0.923411	-0.575922	0.814445	-0.193874	-0.119291	0.377448	-0.201749	0.0667322	-0.0873817	0.93011	-0.290467	-0.172782	0.492071	-0.565439	0.101083	-0.0873817	-0.343778	-0.0624396	0.0591402	-1.1755	-1.16996	-1.70658	2.26023	1.22459	0.139018	-1.13	-0.379349	2.24472	2.02207
1.06	-0.328248	0.0076823	-0.0338433	-0.39847	0.8927	-0.576413	0.925391	-0.199467	-0.0859742	0.551901	-0.0963322	0.0246696	-0.0873817	1.00052	-0.284522	-0.123222	0.61762	-0.360411	0.0409408	-0.0873817	-0.322278	-0.0577184	0.069354	-1.31717	-1.12669	-1.88342	2.26766	1.18686	0.245688	-1.20369	-0.346726	2.24512	1.99676
1.07	-0.345952	0.00413217	-0.0324284	-0.391858	0.863843	-0.577054	1.02852	-0.205683	-0.0577374	0.711743	-0.00530547	-0.00806547	-0.0873817	1.0723	-0.278275	-0.0758755	0.738098	-0.190058	-0.00939833	-0.0873817	-0.305392	-0.0525635	0.0785145	-1.43144	-1.08916	-2.03634	2.27369	1.14851	0.36379	-1.26537	-0.299516	2.24373	1.97484
1.08	-0.362837	-1.58371e-05	-0.0305695	-0.385758	0.836856	-0.577838	1.12344	-0.212442	-0.0345011	0.856522	0.0717157	-0.0316793	-0.0873817	1.14513	-0.271772	-0.0308983	0.853274	-0.0538237	-0.0499195	-0.0873817	-0.293104	-0.047014	0.0867246	-1.51822	-1.05738	-2.16512	2.27838	1.10975	0.493019	-1.31491	-0.237875	2.24057	1.95633
1.09	-0.37882	-0.00470243	-0.0283154	-0.380116	0.811772	-0.578745	1.20938	-0.219554	-0.0159735	0.985412	0.135929	-0.0468242	-0.0873817	1.21808	-0.265123	0.0112775	0.962467	0.050294	-0.0806891	-0.0873817	-0.285304	-0.0412043	0.0942571	-1.57722	-1.03145	-2.26908	2.28184	1.07131	0.632264	-1.35195	-0.162495	2.23565	1.94126
1.1	-0.393815	-0.00979514	-0.0256992	-0.374853	0.788628	-0.579738	1.28554	-0.226774	-0.0015573	1.0978	0.18936	-0.0546592	-0.0873817	1.28962	-0.258449	0.0499882	1.0645	0.126222	-0.102037	-0.0873817	-0.2817	-0.0353898	0.101484	-1.60804	-1.01162	-2.34705	2.28426	1.03451	0.779108	-1.37608	-0.0750978	2.229	1.92981
1.11	-0.407795	-0.0150991	-0.0226563	-0.369876	0.767432	-0.580773	1.35161	-0.23392	0.00962713	1.19385	0.23438	-0.0567092	-0.0873817	1.35787	-0.251771	0.0845624	1.15797	0.179439	-0.114749	-0.0873817	-0.28177	-0.0298941	0.108689	-1.61055	-0.998404	-2.39782	2.28586	1.00103	0.929434	-1.38709	0.0210697	2.22067	1.92226
1.12	-0.420811	-0.020391	-0.0190151	-0.365109	0.748141	-0.581809	1.40802	-0.240935	0.0186171	1.2748	0.273104	-0.0546334	-0.0873817	1.42114	-0.244946	0.114577	1.24165	0.216003	-0.120153	-0.0873817	-0.284803	-0.0250153	0.115916	-1.58567	-0.99259	-2.42102	2.28688	0.972245	1.07738	-1.38526	0.121052	2.21081	1.91878
1.13	-0.432967	-0.0254353	-0.0146168	-0.360502	0.730658	-0.582819	1.45596	-0.247838	0.0264603	1.34272	0.306995	-0.0500078	-0.0873817	1.47825	-0.237744	0.139975	1.31494	0.241565	-0.119984	-0.0873817	-0.29	-0.0209797	0.122991	-1.53646	-0.995179	-2.41832	2.28748	0.948998	1.21607	-1.37158	0.218778	2.19961	1.91923
1.14	-0.444351	-0.0299868	-0.00948755	-0.356034	0.71484	-0.583787	1.49707	-0.254589	0.0340879	1.40014	0.336825	-0.044171	-0.0873817	1.52868	-0.230038	0.16102	1.37803	0.26073	-0.116096	-0.0873817	-0.2966	-0.017958	0.129675	-1.46922	-1.00715	-2.3947	2.28767	0.931695	1.33906	-1.3477	0.308408	2.18736	1.92314
1.15	-0.455004	-0.0338201	-0.00393519	-0.351709	0.700522	-0.584698	1.53303	-0.260974	0.0422054	1.44957	0.362885	-0.0381585	-0.0873817	1.57251	-0.221971	0.178185	1.43184	0.276784	-0.110149	-0.0873817	-0.303943	-0.0160778	0.135803	-1.39445	-1.02922	-2.35946	2.28723	0.920563	1.44172	-1.31575	0.385645	2.17429	1.92972
1.16	-0.464934	-0.0367946	0.0014966	-0.347545	0.687537	-0.585531	1.56529	-0.266588	0.0512035	1.4931	0.385307	-0.0326991	-0.0873817	1.61035	-0.213986	0.192067	1.47779	0.291699	-0.103407	-0.0873817	-0.311469	-0.0153806	0.141309	-1.32745	-1.0616	-2.32693	2.28578	0.915568	1.52197	-1.27813	0.448419	2.16064	1.93803
1.17	-0.474163	-0.0389147	0.00620164	-0.34357	0.67573	-0.586263	1.59485	-0.270958	0.0611127	1.53222	0.404359	-0.0282268	-0.0873817	1.64312	-0.206689	0.203326	1.51746	0.30632	-0.0966971	-0.0873817	-0.31869	-0.0157459	0.146105	-1.28815	-1.10379	-2.31639	2.28273	0.916391	1.58027	-1.23734	0.496834	2.1466	1.94727
1.18	-0.482763	-0.0403392	0.0097283	-0.339813	0.664967	-0.586882	1.62226	-0.27377	0.0716384	1.56779	0.420592	-0.0248776	-0.0873817	1.67196	-0.20062	0.212617	1.55233	0.320679	-0.0904506	-0.0873817	-0.325174	-0.0168464	0.149897	-1.29981	-1.15442	-2.35081	2.27744	0.922477	1.61903	-1.1959	0.532613	2.13244	1.95684
1.19	-0.490853	-0.0413227	0.0119343	-0.336292	0.65514	-0.587396	1.6477	-0.275034	0.0822809	1.6002	0.434831	-0.0224984	-0.0873817	1.69794	-0.196071	0.220492	1.5836	0.334373	-0.0847967	-0.0873817	-0.330577	-0.0181869	0.152088	-1.38621	-1.21107	-2.45414	2.26926	0.933103	1.64186	-1.15628	0.558363	2.11859	1.96636
